<?xml version="1.0" standalone="no"?>
<!DOCTYPE svg PUBLIC "-//W3C//DTD SVG 20010904//EN"
 "http://www.w3.org/TR/2001/REC-SVG-20010904/DTD/svg10.dtd">
<svg version="1.0" xmlns="http://www.w3.org/2000/svg"
 width="345.000000pt" height="345.000000pt" viewBox="0 0 345.000000 345.000000"
 preserveAspectRatio="xMidYMid meet">
<metadata>
Created by potrace 1.11, written by Peter Selinger 2001-2013
</metadata>
<g transform="translate(0.000000,345.000000) scale(0.100000,-0.100000)"
fill="#000000" stroke="none">
<path d="M0 1725 l0 -1725 1725 0 1725 0 0 1725 0 1725 -1725 0 -1725 0 0
-1725z m1525 1230 l1 -135 -29 0 -29 0 7 68 c8 81 37 202 48 202 1 0 2 -61 2
-135z m26 -207 c6 -29 23 -84 36 -122 21 -65 22 -71 6 -88 -19 -21 -75 -24
-91 -5 -8 10 -32 195 -32 249 0 11 10 18 28 20 38 5 38 4 53 -54z m129 -218
c0 -36 -185 -67 -225 -37 -20 15 -19 16 7 22 15 4 43 2 63 -5 30 -10 40 -9 73
8 41 21 82 28 82 12z m235 -17 c40 -5 56 -14 93 -52 166 -173 215 -583 95
-802 -34 -63 -120 -139 -134 -118 -5 8 -9 25 -9 38 0 43 -34 122 -50 117 -8
-2 -67 -22 -130 -44 -171 -60 -254 -74 -415 -70 -117 3 -135 1 -132 -12 3 -8
16 -55 31 -104 14 -48 26 -95 26 -103 0 -8 7 -27 15 -43 9 -17 13 -30 10 -30
-9 0 -61 34 -91 60 -27 23 -84 102 -84 116 0 3 -6 20 -14 37 -30 67 -37 106
-43 221 l-6 118 79 -8 c100 -11 411 -11 529 0 123 12 187 42 209 100 21 54 20
84 -3 122 -22 37 -85 68 -166 83 -122 23 -440 8 -553 -25 l-24 -7 25 49 c42
81 122 174 199 231 46 34 50 35 81 22 46 -20 174 -18 217 4 61 30 73 43 68 76
l-5 31 67 0 c37 0 89 -3 115 -7z m-237 -44 c4 -21 -81 -49 -149 -49 -56 0 -82
12 -92 42 -5 14 -2 15 25 6 34 -12 167 -3 182 12 13 13 30 7 34 -11z m81 -360
c34 -8 66 -25 87 -45 29 -27 34 -38 34 -77 0 -25 -4 -49 -10 -52 -6 -4 -10 7
-10 25 0 48 -51 93 -135 120 -57 18 -103 24 -245 29 -130 4 -161 7 -120 12 86
11 339 3 399 -12z m-54 -46 c101 -22 135 -52 135 -117 l0 -45 -52 -16 c-61
-19 -494 -33 -610 -21 -120 13 -169 74 -118 146 43 60 82 67 362 69 160 1 225
-3 283 -16z m-350 -723 c60 -25 247 -38 305 -21 19 5 49 12 66 15 l30 5 -17
-53 c-32 -93 -41 -188 -37 -390 4 -225 16 -202 -117 -212 -87 -7 -149 5 -184
34 -19 16 -21 36 -34 294 -13 276 -14 277 -41 312 -28 37 -25 38 29 16z m317
-708 c7 -11 27 -26 43 -35 17 -9 24 -16 17 -17 -17 0 -75 30 -84 44 -20 29 3
36 24 8z m208 -42 c-8 -5 -19 -10 -25 -10 -5 0 -3 5 5 10 8 5 20 10 25 10 6 0
3 -5 -5 -10z m-252 -43 c24 -68 112 -89 257 -62 161 30 178 30 209 4 19 -17
29 -37 33 -67 l6 -42 -353 0 -352 0 7 38 c15 80 74 142 135 142 10 0 22 5 25
10 11 18 21 11 33 -23z"/>
<path d="M1330 2061 c-118 -5 -140 -9 -178 -31 -68 -38 -69 -85 -4 -123 28
-17 58 -19 254 -20 223 -1 299 7 358 38 56 30 25 92 -59 119 -59 19 -199 25
-371 17z m8 -68 c2 -20 -2 -32 -12 -36 -23 -9 -40 27 -26 54 15 28 34 19 38
-18z m264 12 c8 -19 8 -29 0 -37 -16 -16 -42 -2 -42 25 0 43 24 50 42 12z"/>
</g>
</svg>
